<svg width="275" height="53" viewBox="0 0 275 53" fill="none" xmlns="http://www.w3.org/2000/svg">
<path d="M81.2366 18.2888C78.7526 18.2888 76.7006 19.2968 75.5126 21.0248V11.2688H72.4166V36.3608H75.5126V28.5488C75.5126 23.5808 77.2046 21.0248 80.4086 21.0248C82.9286 21.0248 84.0806 22.6088 84.0806 26.0648V36.3608H87.1766V25.3088C87.1766 20.7368 85.0886 18.2888 81.2366 18.2888ZM98.1352 18.2888C95.0392 18.2888 92.6272 19.4768 90.6472 21.9968L92.8792 23.8688C94.2832 21.9968 95.9752 21.0248 98.0632 21.0248C100.763 21.0248 102.275 22.5368 102.275 25.2728V25.9928H98.3512C95.3632 25.9928 93.5992 26.2808 92.2672 27.0008C90.8272 27.7928 90.0352 29.2328 90.0352 31.1048C90.0352 34.5248 92.4472 36.6848 96.2632 36.6848C98.9272 36.6848 101.051 35.6048 102.311 33.6968L102.527 36.3608H105.371V25.2728C105.371 20.8808 102.671 18.2888 98.1352 18.2888ZM96.9832 34.0928C94.6072 34.0928 93.1312 32.9768 93.1312 31.2488C93.1312 30.3488 93.4552 29.6648 94.0312 29.1968C94.7872 28.6208 96.0112 28.4048 98.7112 28.4048H102.275V28.5848C102.275 31.8608 100.115 34.0928 96.9832 34.0928ZM116.539 36.6848C119.851 36.6848 122.479 34.8848 123.667 31.6448L120.823 30.5648C120.211 32.6888 118.591 33.9488 116.503 33.9488C112.975 33.9488 111.463 30.8888 111.463 27.5408C111.463 24.1928 112.975 21.0248 116.503 21.0248C118.555 21.0248 120.175 22.3208 120.895 24.4808L123.847 23.2928C122.443 19.9088 119.779 18.2888 116.503 18.2888C110.995 18.2888 108.295 22.8608 108.295 27.5408C108.295 32.4008 111.175 36.6848 116.539 36.6848ZM126.833 36.3608H129.929V31.1408L133.565 27.2528L139.433 36.3608H143.105L135.689 25.3448L142.169 18.6128H138.029L129.929 27.2888V11.2688H126.833V36.3608ZM158.365 27.4328V11.2688H155.557L142.957 28.4768V30.4208H155.269V36.3608H158.365V30.4208H162.397V27.4328H158.365ZM146.989 27.4328L155.269 15.8048V27.4328H146.989ZM164.782 15.0488H168.238V11.2688H164.782V15.0488ZM164.962 36.3608H168.058V18.6128H164.962V36.3608ZM191.851 18.2888C189.295 18.2888 187.279 19.3328 186.055 21.7448C185.083 19.2608 183.139 18.2888 180.835 18.2888C178.927 18.2888 177.127 18.9728 176.011 20.8088V18.6128H172.987L173.023 36.3608H176.119V28.4048C176.119 24.5528 176.731 21.0248 180.259 21.0248C183.247 21.0248 183.931 23.7608 183.931 26.1728V36.3608H187.027V28.4048C187.027 24.5528 187.603 21.0248 191.239 21.0248C194.767 21.0248 194.839 24.6248 194.839 26.1008V36.3608H197.935V25.2008C197.935 21.2408 196.099 18.2888 191.851 18.2888ZM211.17 18.2888C208.866 18.2888 206.85 19.1168 205.554 20.8088V18.6128H202.458V43.7048H205.554V34.1288C206.742 35.7128 208.794 36.6848 211.17 36.6848C216.102 36.6848 218.946 32.9408 218.946 27.4688C218.946 21.9968 216.066 18.2888 211.17 18.2888ZM210.594 33.9488C207.066 33.9488 205.302 31.1768 205.302 27.4688C205.302 23.6168 207.174 20.9888 210.594 20.9888C213.942 20.9888 215.85 23.5088 215.85 27.4688C215.85 31.3208 214.05 33.9488 210.594 33.9488ZM228.915 18.2888C225.819 18.2888 223.407 19.4768 221.427 21.9968L223.659 23.8688C225.063 21.9968 226.755 21.0248 228.843 21.0248C231.543 21.0248 233.055 22.5368 233.055 25.2728V25.9928H229.131C226.143 25.9928 224.379 26.2808 223.047 27.0008C221.607 27.7928 220.815 29.2328 220.815 31.1048C220.815 34.5248 223.227 36.6848 227.043 36.6848C229.707 36.6848 231.831 35.6048 233.091 33.6968L233.307 36.3608H236.151V25.2728C236.151 20.8808 233.451 18.2888 228.915 18.2888ZM227.763 34.0928C225.387 34.0928 223.911 32.9768 223.911 31.2488C223.911 30.3488 224.235 29.6648 224.811 29.1968C225.567 28.6208 226.791 28.4048 229.491 28.4048H233.055V28.5848C233.055 31.8608 230.895 34.0928 227.763 34.0928ZM247.319 36.6848C250.631 36.6848 253.259 34.8848 254.447 31.6448L251.603 30.5648C250.991 32.6888 249.371 33.9488 247.283 33.9488C243.755 33.9488 242.243 30.8888 242.243 27.5408C242.243 24.1928 243.755 21.0248 247.283 21.0248C249.335 21.0248 250.955 22.3208 251.675 24.4808L254.627 23.2928C253.223 19.9088 250.559 18.2888 247.283 18.2888C241.775 18.2888 239.075 22.8608 239.075 27.5408C239.075 32.4008 241.955 36.6848 247.319 36.6848ZM265.677 21.1328V18.6128H261.321V12.0968L258.225 14.4008V18.6128H255.309V21.1328H258.225V31.9328C258.225 35.2808 260.241 36.6848 262.797 36.6848C263.733 36.6848 264.705 36.5048 265.677 36.1808V33.5528C264.885 33.8048 264.165 33.9488 263.553 33.9488C262.149 33.9488 261.321 33.2288 261.321 31.6088V21.1328H265.677Z" fill="#171717"/>
<path d="M0.152344 12.1442V23.9277H1.90406H3.65577V13.8959V3.86412H13.6876H23.7194V2.1124V0.360687H11.9359H0.152344V12.1442Z" fill="#666B72"/>
<ellipse cx="26.151" cy="26.3935" rx="17.4675" ry="17.4363" fill="#83E4C7"/>
<path d="M24.4069 8.97183C24.4117 8.97832 24.3047 8.98967 24.1684 8.99615C24.0338 9.00264 23.9203 9.01562 23.917 9.02373C23.9138 9.03184 23.8603 9.03833 23.7986 9.03833C23.7273 9.03833 23.6883 9.04481 23.6948 9.05455C23.7013 9.06428 23.6591 9.07076 23.578 9.07076C23.4905 9.07076 23.4596 9.07563 23.4759 9.08699C23.4937 9.09834 23.4694 9.1032 23.398 9.1032C23.3331 9.1032 23.2991 9.10969 23.3056 9.11942C23.312 9.12915 23.291 9.13564 23.2536 9.13564C23.1352 9.13564 22.9747 9.15673 22.9828 9.1697C22.9876 9.17781 22.9503 9.1843 22.9001 9.1843C22.8433 9.1843 22.8125 9.19079 22.819 9.20052C22.8255 9.21025 22.793 9.21674 22.7346 9.21674C22.6681 9.21674 22.647 9.22161 22.6649 9.23296C22.6827 9.24432 22.66 9.24918 22.5919 9.24918C22.5286 9.24918 22.5027 9.25405 22.5173 9.26378C22.5319 9.27351 22.4913 9.28162 22.4005 9.28973C22.3226 9.29622 22.2643 9.30757 22.2691 9.31568C22.274 9.32379 22.2432 9.33028 22.2026 9.33028C22.1572 9.33028 22.1313 9.33677 22.1377 9.3465C22.1442 9.35623 22.1215 9.36272 22.0826 9.36272C22.0453 9.36272 22.0161 9.36921 22.0161 9.37894C22.0161 9.38705 21.9869 9.39516 21.9512 9.39516C21.9155 9.39516 21.8863 9.40165 21.8863 9.40976C21.8863 9.41949 21.8344 9.43084 21.7712 9.43733C21.6982 9.44382 21.6641 9.45355 21.6787 9.46166C21.6917 9.47139 21.669 9.47626 21.6187 9.47626C21.5603 9.47626 21.5441 9.48112 21.5619 9.49247C21.5798 9.50383 21.5668 9.5087 21.5165 9.5087C21.4744 9.5087 21.45 9.51518 21.4565 9.52491C21.463 9.53465 21.4403 9.54113 21.4014 9.54113C21.3673 9.54113 21.3349 9.54925 21.3316 9.55736C21.3284 9.56709 21.2846 9.58006 21.2327 9.58493C21.1727 9.59142 21.1451 9.59952 21.1597 9.60763C21.1727 9.61736 21.1548 9.62223 21.111 9.62223C21.0689 9.62223 21.0445 9.62872 21.051 9.63845C21.0575 9.64818 21.0397 9.65467 21.0121 9.65467C20.9845 9.65467 20.9618 9.66116 20.9618 9.66927C20.9618 9.67576 20.9278 9.68711 20.8856 9.69198C20.8434 9.69684 20.8061 9.7082 20.8029 9.71793C20.7996 9.72766 20.7753 9.73577 20.7493 9.73577C20.7234 9.73577 20.7023 9.74226 20.7023 9.75199C20.7023 9.7601 20.6764 9.76821 20.6439 9.76821C20.6099 9.76821 20.5904 9.77469 20.5969 9.78443C20.6034 9.79416 20.5839 9.80065 20.5482 9.80065C20.5158 9.80065 20.4931 9.80713 20.4979 9.81524C20.5028 9.82335 20.4769 9.83309 20.4396 9.83795C20.4006 9.84282 20.3682 9.85579 20.3649 9.8639C20.3617 9.87364 20.3374 9.88174 20.3114 9.88174C20.2822 9.88174 20.266 9.88823 20.2725 9.89797C20.279 9.9077 20.2611 9.91418 20.2336 9.91418C20.206 9.91418 20.1833 9.92067 20.1833 9.9304C20.1833 9.93851 20.1606 9.94663 20.133 9.94663C20.107 9.94663 20.0876 9.95311 20.0925 9.96122C20.0973 9.96933 20.0697 9.98069 20.0292 9.98555C19.9886 9.99204 19.9562 10.0034 19.9562 10.0131C19.9562 10.0212 19.9319 10.0277 19.9043 10.0277C19.8638 10.0277 19.8573 10.0326 19.8751 10.0439C19.893 10.0553 19.8865 10.0602 19.8459 10.0602C19.8135 10.0602 19.7956 10.0666 19.8021 10.0764C19.8086 10.0861 19.7908 10.0926 19.7632 10.0926C19.7356 10.0926 19.7129 10.0991 19.7129 10.1088C19.7129 10.1169 19.6837 10.1299 19.648 10.1348C19.6124 10.1413 19.588 10.151 19.5929 10.1591C19.5978 10.1672 19.5783 10.1737 19.5507 10.1737C19.5215 10.1737 19.5037 10.1802 19.5102 10.1899C19.5167 10.1997 19.4988 10.2061 19.4696 10.2061C19.4404 10.2061 19.4226 10.2126 19.4291 10.2224C19.4356 10.2321 19.421 10.2386 19.3983 10.2386C19.3755 10.2386 19.3561 10.2451 19.3561 10.2548C19.3561 10.2629 19.3269 10.2759 19.2912 10.2807C19.2555 10.2872 19.2312 10.297 19.2361 10.3051C19.2409 10.3132 19.2247 10.3197 19.202 10.3197C19.1777 10.3197 19.1631 10.3262 19.1696 10.3359C19.176 10.3456 19.1614 10.3521 19.1387 10.3521C19.116 10.3521 19.0966 10.3586 19.0966 10.3683C19.0966 10.3764 19.082 10.3846 19.0625 10.3846C19.0447 10.3846 19.0187 10.3959 19.0057 10.4089C18.9911 10.4219 18.9619 10.4332 18.9409 10.4332C18.9182 10.4332 18.9052 10.4397 18.91 10.4494C18.9165 10.4592 18.9019 10.4656 18.8776 10.4656C18.8533 10.4656 18.8387 10.4721 18.8452 10.4819C18.8517 10.4916 18.8371 10.4981 18.8127 10.4981C18.7884 10.4981 18.7738 10.5046 18.7803 10.5143C18.7884 10.5273 18.7333 10.5386 18.7187 10.5257C18.7154 10.524 18.7008 10.5354 18.6846 10.55C18.6684 10.5662 18.6376 10.5792 18.6132 10.5792C18.5792 10.5792 18.5743 10.5824 18.5938 10.5954C18.6116 10.6068 18.6035 10.6116 18.5613 10.6116C18.5192 10.6116 18.511 10.6165 18.5289 10.6278C18.5483 10.6408 18.5435 10.6441 18.5094 10.6441C18.4835 10.6441 18.464 10.6506 18.464 10.6603C18.464 10.6684 18.4494 10.6765 18.4316 10.6765C18.4137 10.6765 18.3991 10.6846 18.3991 10.6943C18.3991 10.7025 18.3926 10.7057 18.3829 10.7008C18.3748 10.696 18.3667 10.6992 18.3667 10.7073C18.3667 10.7171 18.3472 10.7252 18.3245 10.7252C18.3018 10.7252 18.2872 10.7317 18.2937 10.7414C18.2986 10.7495 18.2888 10.7576 18.271 10.7576C18.2515 10.7576 18.2369 10.7641 18.2369 10.7738C18.2369 10.7819 18.2223 10.79 18.2045 10.79C18.1867 10.79 18.1721 10.7965 18.1721 10.8063C18.1721 10.8144 18.1575 10.8225 18.1412 10.8225C18.1234 10.8225 18.0991 10.8338 18.0845 10.8468C18.0715 10.8598 18.0488 10.8711 18.0342 10.8711C18.0196 10.8711 18.0131 10.8776 18.018 10.8874C18.0228 10.8955 18.0131 10.9036 17.9953 10.9036C17.9758 10.9036 17.9612 10.9101 17.9612 10.9198C17.9612 10.9279 17.9498 10.936 17.9369 10.936C17.9239 10.936 17.9125 10.9425 17.9125 10.9522C17.9125 10.9603 17.8866 10.9717 17.8558 10.9782C17.825 10.9831 17.799 10.9944 17.799 11.0025C17.799 11.0106 17.7844 11.0171 17.7649 11.0171C17.7471 11.0171 17.7374 11.0236 17.7422 11.0333C17.7471 11.0414 17.7374 11.0496 17.7179 11.0496C17.6984 11.0496 17.6887 11.056 17.6936 11.0658C17.6984 11.0739 17.692 11.082 17.6774 11.082C17.6628 11.082 17.6401 11.0933 17.6271 11.1063C17.6125 11.1193 17.5881 11.1307 17.5703 11.1307C17.5541 11.1307 17.5395 11.1371 17.5395 11.1469C17.5395 11.155 17.5249 11.1631 17.5054 11.1631C17.4876 11.1631 17.4779 11.1696 17.4827 11.1793C17.4892 11.189 17.473 11.1955 17.447 11.1955C17.4114 11.1955 17.4065 11.1988 17.426 11.2118C17.447 11.2247 17.4454 11.228 17.4211 11.228C17.4049 11.228 17.3805 11.2393 17.3676 11.2523C17.353 11.2653 17.3286 11.2766 17.3108 11.2766C17.293 11.2766 17.2832 11.2831 17.2881 11.2929C17.293 11.301 17.2832 11.3091 17.2638 11.3091C17.2443 11.3091 17.2346 11.3156 17.2394 11.3253C17.2443 11.3334 17.2346 11.3415 17.2167 11.3415C17.1973 11.3415 17.1827 11.348 17.1827 11.3577C17.1827 11.3658 17.1681 11.3739 17.1518 11.3739C17.1356 11.3739 17.1178 11.3853 17.1113 11.3983C17.1064 11.4113 17.087 11.4226 17.0691 11.4226C17.0497 11.4226 17.0399 11.4291 17.0448 11.4388C17.0497 11.4469 17.0399 11.455 17.0205 11.455C17.001 11.455 16.9913 11.4615 16.9961 11.4713C17.001 11.4794 16.9945 11.4875 16.9815 11.4875C16.9669 11.4875 16.9556 11.494 16.9556 11.5037C16.9556 11.5118 16.941 11.5199 16.9231 11.5199C16.9053 11.5199 16.8907 11.5264 16.8907 11.5361C16.8907 11.5443 16.8729 11.5556 16.8502 11.5621C16.8274 11.567 16.8096 11.5783 16.8096 11.5864C16.8096 11.5945 16.7934 11.601 16.7739 11.601C16.7431 11.601 16.7415 11.6043 16.7609 11.6189C16.7804 11.6318 16.7755 11.6351 16.7415 11.6286C16.7107 11.6237 16.7009 11.6286 16.7074 11.6448C16.7123 11.6562 16.7058 11.6659 16.6912 11.6659C16.6782 11.6659 16.6588 11.6773 16.6474 11.6902C16.6361 11.7032 16.6117 11.7146 16.5923 11.7146C16.5647 11.7146 16.5631 11.7178 16.5825 11.7308C16.602 11.7438 16.5988 11.747 16.5696 11.747C16.5485 11.747 16.5371 11.7535 16.542 11.7632C16.5469 11.7713 16.5371 11.7794 16.5193 11.7794C16.4998 11.7794 16.4852 11.7859 16.4852 11.7957C16.4852 11.8038 16.4674 11.8151 16.4447 11.8216C16.422 11.8265 16.409 11.8378 16.4138 11.8459C16.4187 11.854 16.4106 11.8605 16.3976 11.8605C16.383 11.8605 16.3717 11.867 16.3717 11.8768C16.3717 11.8849 16.3571 11.893 16.3376 11.893C16.3198 11.893 16.31 11.8995 16.3149 11.9092C16.3198 11.9173 16.3133 11.9254 16.3003 11.9254C16.2857 11.9254 16.2744 11.9319 16.2744 11.9416C16.2744 11.9497 16.2565 11.9611 16.2338 11.9676C16.2111 11.9725 16.1981 11.9838 16.203 11.9919C16.2079 12 16.1998 12.0065 16.1868 12.0065C16.1722 12.0065 16.1608 12.013 16.1608 12.0227C16.1608 12.0308 16.1527 12.0389 16.1446 12.0389C16.1349 12.0389 16.1073 12.0584 16.0846 12.0811C16.0554 12.1103 16.0311 12.12 16.0051 12.1152C15.9727 12.1103 15.9694 12.1119 15.984 12.1298C15.9986 12.1476 15.997 12.1525 15.9759 12.1525C15.9597 12.1525 15.9532 12.159 15.9581 12.1687C15.9629 12.1768 15.9548 12.1849 15.9386 12.1849C15.9224 12.1849 15.8981 12.1995 15.8851 12.2157C15.8737 12.2336 15.8575 12.2449 15.8494 12.2401C15.8429 12.2352 15.8364 12.2401 15.8364 12.2482C15.8364 12.2579 15.8267 12.266 15.8153 12.266C15.804 12.266 15.7845 12.2806 15.7716 12.2985C15.7586 12.3163 15.7342 12.3309 15.7164 12.3309C15.6986 12.3309 15.6905 12.3358 15.6953 12.3406C15.7083 12.3536 15.6369 12.412 15.6094 12.412C15.5996 12.412 15.5964 12.4185 15.6012 12.4282C15.6061 12.438 15.5948 12.4444 15.5753 12.4444C15.5558 12.4444 15.5429 12.4493 15.5493 12.4542C15.5623 12.4688 15.5201 12.5093 15.491 12.5093C15.478 12.5093 15.4618 12.5207 15.4569 12.5353C15.4504 12.5531 15.4358 12.558 15.4131 12.5531C15.3871 12.5466 15.3839 12.5482 15.4001 12.5677C15.4147 12.5856 15.4131 12.5904 15.392 12.5904C15.3758 12.5904 15.3693 12.5969 15.3742 12.6066C15.379 12.6147 15.3726 12.6229 15.358 12.6229C15.3417 12.6229 15.3158 12.6407 15.2979 12.6634C15.2801 12.6861 15.2558 12.704 15.2428 12.704C15.2298 12.704 15.2233 12.7104 15.2282 12.7202C15.2331 12.7283 15.2233 12.7364 15.2039 12.7364C15.1844 12.7364 15.1747 12.7429 15.1795 12.7526C15.1844 12.7607 15.1812 12.7688 15.1714 12.7688C15.1617 12.7688 15.1374 12.7867 15.1163 12.8094C15.0952 12.8321 15.0644 12.8499 15.0482 12.8499C15.0222 12.8499 15.0206 12.8532 15.0417 12.8661C15.0611 12.8791 15.0579 12.8824 15.0287 12.8824C15.0076 12.8824 14.9946 12.8889 14.9995 12.8953C15.0044 12.9035 14.993 12.9197 14.9736 12.9327C14.9557 12.9456 14.9233 12.9716 14.9022 12.991C14.8811 13.0121 14.86 13.0283 14.8551 13.0283C14.8503 13.0283 14.8276 13.0478 14.8032 13.0705C14.7805 13.0932 14.7513 13.1078 14.7384 13.103C14.7254 13.0981 14.7205 13.1013 14.7254 13.1094C14.7367 13.1289 14.6962 13.1743 14.6686 13.1743C14.6589 13.1743 14.6556 13.1808 14.6605 13.1905C14.6654 13.1987 14.6621 13.2068 14.6524 13.2068C14.6427 13.2068 14.6167 13.2262 14.5956 13.2489C14.5745 13.2716 14.5486 13.2862 14.5405 13.2797C14.5291 13.2733 14.5275 13.2797 14.534 13.2976C14.5421 13.3203 14.5389 13.3235 14.5162 13.3154C14.4999 13.3089 14.4918 13.3106 14.4983 13.3203C14.5048 13.33 14.4967 13.3479 14.4837 13.3625C14.4691 13.3754 14.4578 13.3819 14.4578 13.3754C14.4578 13.369 14.4448 13.3803 14.427 13.3982C14.4107 13.4176 14.388 13.4338 14.3783 13.4338C14.3669 13.4338 14.3637 13.4403 14.3686 13.4501C14.3734 13.4582 14.3702 13.4663 14.3604 13.4663C14.3491 13.4663 14.3264 13.4857 14.3085 13.5084C14.2907 13.5312 14.2664 13.5458 14.2534 13.5409C14.2388 13.536 14.2356 13.5409 14.242 13.5587C14.2502 13.5782 14.2453 13.5831 14.2258 13.5749C14.2064 13.5685 14.2031 13.5717 14.2096 13.5912C14.2177 13.6123 14.2129 13.6155 14.1918 13.6074C14.1739 13.6009 14.1674 13.6025 14.1755 13.6139C14.1869 13.6333 14.0166 13.8069 13.9858 13.8069C13.9744 13.8069 13.9712 13.8118 13.976 13.8166C13.9858 13.828 13.9241 13.8912 13.8609 13.935C13.8414 13.948 13.8301 13.9642 13.8349 13.9723C13.8398 13.9788 13.8268 13.9853 13.8057 13.9853C13.7814 13.9853 13.7749 13.9902 13.7879 13.9983C13.8025 14.008 13.7993 14.0177 13.7733 14.034C13.7555 14.0469 13.7311 14.068 13.7214 14.0794C13.6111 14.2075 13.4181 14.3924 13.4051 14.3843C13.3938 14.3762 13.3921 14.3827 13.3986 14.4005C13.4067 14.4216 13.4035 14.4265 13.3824 14.4184C13.3629 14.4119 13.3597 14.4151 13.3662 14.4346C13.3743 14.454 13.3694 14.4589 13.35 14.4508C13.3321 14.4443 13.3273 14.4476 13.3321 14.4622C13.337 14.4735 13.3062 14.5124 13.2656 14.5481C13.2251 14.5854 13.1926 14.6227 13.1926 14.6325C13.1926 14.6422 13.1845 14.6503 13.1732 14.6503C13.1634 14.6503 13.1586 14.6552 13.1651 14.66C13.1797 14.6746 13.131 14.7184 13.1115 14.7071C13.1018 14.7006 13.1002 14.7087 13.1067 14.7249C13.1148 14.746 13.1099 14.7509 13.0921 14.7444C13.0775 14.7379 13.0677 14.7428 13.0694 14.7541C13.0726 14.7833 12.9202 14.9455 12.9007 14.9341C12.8926 14.9293 12.8893 14.9341 12.8926 14.9471C12.8974 14.9585 12.8861 14.986 12.8682 15.0088C12.8504 15.0298 12.8147 15.072 12.7904 15.1012C12.7661 15.132 12.7304 15.1726 12.7109 15.1937C12.6898 15.2147 12.6736 15.2375 12.6736 15.2423C12.6736 15.2472 12.6444 15.2812 12.6087 15.3186C12.5731 15.3575 12.5439 15.3932 12.5439 15.3996C12.5439 15.4045 12.5147 15.4418 12.479 15.4807C12.4433 15.5181 12.4141 15.5554 12.4141 15.5635C12.4141 15.57 12.393 15.5975 12.3654 15.6267C12.3395 15.6543 12.3168 15.6835 12.3168 15.69C12.3168 15.6965 12.2989 15.7208 12.2762 15.7435C12.2535 15.7662 12.2357 15.7889 12.2357 15.7938C12.2357 15.7987 12.2178 15.8214 12.1951 15.8441C12.1724 15.8668 12.1546 15.8911 12.1546 15.8976C12.1546 15.9041 12.1335 15.9333 12.1059 15.9608C12.08 15.99 12.0573 16.0192 12.0573 16.029C12.0573 16.0371 12.0492 16.0452 12.0378 16.0452C12.0281 16.0452 12.0232 16.0501 12.0297 16.0549C12.0346 16.0598 12.0248 16.0793 12.007 16.0987C11.9908 16.1166 11.9762 16.1425 11.9762 16.1539C11.9762 16.1668 11.9697 16.1717 11.96 16.1668C11.9518 16.162 11.9437 16.1685 11.9437 16.1814C11.9437 16.196 11.9372 16.2074 11.9275 16.2074C11.9194 16.2074 11.9113 16.2187 11.9113 16.2317C11.9113 16.2447 11.9032 16.256 11.8935 16.256C11.8853 16.256 11.8805 16.2625 11.8853 16.269C11.8902 16.2771 11.8789 16.2933 11.861 16.3047C11.8448 16.3177 11.8302 16.3355 11.8302 16.3436C11.8302 16.3517 11.8172 16.3696 11.8026 16.3842C11.7864 16.3988 11.7604 16.4377 11.7426 16.4701C11.7264 16.5026 11.6988 16.5448 11.6826 16.5626C11.6648 16.5804 11.6518 16.6031 11.6518 16.6129C11.6518 16.621 11.6453 16.6291 11.6388 16.6291C11.6307 16.6291 11.6112 16.6583 11.5934 16.694C11.5772 16.7297 11.5577 16.7589 11.5512 16.7589C11.5431 16.7589 11.5382 16.767 11.5382 16.7767C11.5382 16.788 11.5253 16.8075 11.5107 16.8221C11.4944 16.8367 11.4669 16.8773 11.449 16.9129C11.4312 16.9486 11.4036 16.9892 11.389 17.0038C11.3728 17.0184 11.3598 17.0378 11.3598 17.0492C11.3598 17.0589 11.3517 17.067 11.3436 17.067C11.3339 17.067 11.3274 17.0719 11.329 17.0784C11.3323 17.1043 11.3063 17.1643 11.2933 17.1643C11.2852 17.1643 11.2787 17.1741 11.2787 17.1854C11.2787 17.1968 11.2641 17.2162 11.2463 17.2292C11.2284 17.2422 11.2138 17.2617 11.2138 17.2714C11.2138 17.299 11.1603 17.3914 11.1457 17.3914C11.1376 17.3914 11.1328 17.406 11.1328 17.4239C11.1328 17.4417 11.1263 17.4563 11.1165 17.4563C11.1084 17.4563 11.1003 17.4676 11.1003 17.4806C11.1003 17.4936 11.0954 17.505 11.089 17.505C11.0808 17.505 11.0614 17.5374 11.0435 17.5779C11.0257 17.6185 11.0062 17.6509 10.9998 17.6509C10.9916 17.6509 10.9868 17.6623 10.9868 17.6769C10.9868 17.6899 10.9803 17.6963 10.9706 17.6915C10.9624 17.6866 10.9543 17.6963 10.9543 17.7142C10.9543 17.7336 10.9478 17.7482 10.9414 17.7482C10.9349 17.7482 10.9154 17.7839 10.8976 17.8293C10.8797 17.8731 10.8603 17.9104 10.8538 17.9104C10.8473 17.9104 10.8408 17.9218 10.8408 17.9364C10.8408 17.9494 10.8343 17.9559 10.8246 17.951C10.8165 17.9461 10.8084 17.9559 10.8084 17.9737C10.8084 17.9915 10.8019 18.0094 10.7938 18.0159C10.7857 18.0207 10.7743 18.0467 10.7678 18.0726C10.7613 18.1002 10.75 18.1213 10.7419 18.1213C10.7337 18.1213 10.7273 18.1326 10.7273 18.1456C10.7273 18.1586 10.7208 18.17 10.711 18.17C10.7029 18.17 10.6948 18.1846 10.6948 18.2024C10.6948 18.2202 10.6883 18.2348 10.6786 18.2348C10.6705 18.2348 10.6624 18.2462 10.6624 18.2592C10.6624 18.2721 10.6559 18.2835 10.6462 18.2835C10.6381 18.2835 10.6299 18.2948 10.6299 18.3078C10.6299 18.3354 10.5472 18.4992 10.5294 18.5073C10.5213 18.5106 10.5164 18.5268 10.5164 18.5446C10.5164 18.5608 10.5083 18.5754 10.4986 18.5754C10.4905 18.5754 10.4856 18.5819 10.4905 18.5884C10.4953 18.5965 10.484 18.6257 10.4661 18.6533C10.4499 18.6825 10.4353 18.7166 10.4353 18.7295C10.4353 18.7425 10.4288 18.7539 10.4191 18.7539C10.411 18.7539 10.4029 18.7701 10.4029 18.7895C10.4029 18.809 10.398 18.8187 10.3915 18.8139C10.3818 18.8025 10.3445 18.8852 10.3266 18.9598C10.3218 18.9809 10.312 18.9972 10.3039 18.9972C10.2958 18.9972 10.2893 19.0118 10.2893 19.0312C10.2893 19.0491 10.2828 19.0588 10.2731 19.0539C10.265 19.0491 10.2569 19.0588 10.2569 19.0766C10.2569 19.0961 10.2504 19.1107 10.2407 19.1107C10.2326 19.1107 10.2245 19.1253 10.2245 19.1431C10.2245 19.1788 10.1434 19.3589 10.1239 19.367C10.1174 19.3702 10.1109 19.3913 10.1109 19.4124C10.1109 19.4335 10.1044 19.4513 10.0947 19.4513C10.0866 19.4513 10.0785 19.4627 10.0785 19.4773C10.0785 19.5016 10.046 19.5843 10.012 19.6492C10.0039 19.6654 9.99738 19.6897 9.99738 19.7027C9.99738 19.7157 9.99089 19.727 9.98116 19.727C9.97305 19.727 9.96494 19.7465 9.96494 19.7692C9.96494 19.7919 9.95845 19.8065 9.94872 19.8C9.93899 19.7952 9.9325 19.8065 9.9325 19.8276C9.9325 19.8487 9.92115 19.886 9.90817 19.9119C9.8952 19.9363 9.88384 19.972 9.88384 19.9882C9.88384 20.006 9.87736 20.019 9.86762 20.019C9.85951 20.019 9.8514 20.0385 9.8514 20.0612C9.8514 20.0839 9.84492 20.0985 9.83518 20.092C9.82545 20.0855 9.81896 20.1001 9.81896 20.1228C9.81896 20.1455 9.81248 20.165 9.80437 20.165C9.79626 20.165 9.7849 20.1974 9.78004 20.238C9.77355 20.2769 9.7622 20.3142 9.75246 20.3191C9.74435 20.3255 9.73787 20.3434 9.73787 20.3612C9.73787 20.3774 9.73138 20.392 9.72165 20.392C9.71354 20.392 9.70543 20.4147 9.70543 20.4423C9.70543 20.4699 9.69894 20.4877 9.68921 20.4812C9.67948 20.4748 9.67299 20.4926 9.67299 20.5202C9.67299 20.5477 9.6665 20.5705 9.65839 20.5705C9.65028 20.5705 9.63893 20.6029 9.63406 20.6434C9.62757 20.6824 9.61622 20.7197 9.60649 20.7245C9.59838 20.731 9.59189 20.7521 9.59189 20.7748C9.59189 20.7959 9.5854 20.8137 9.57567 20.8137C9.56756 20.8137 9.55945 20.8348 9.55945 20.8624C9.55945 20.8884 9.55296 20.9111 9.54323 20.9111C9.53512 20.9111 9.52701 20.9273 9.52701 20.9484C9.52701 20.9695 9.52215 20.9922 9.51566 20.9987C9.50755 21.0051 9.50268 21.0165 9.50106 21.0214C9.48809 21.1089 9.47187 21.1706 9.46051 21.1706C9.4524 21.1706 9.44591 21.1917 9.44591 21.2192C9.44591 21.2452 9.43943 21.2679 9.42969 21.2679C9.42158 21.2679 9.41348 21.2938 9.41348 21.3263C9.41348 21.3603 9.40699 21.3798 9.39726 21.3733C9.38752 21.3668 9.38104 21.3847 9.38104 21.4171C9.37941 21.4463 9.36968 21.4998 9.35671 21.5355C9.34373 21.5712 9.33238 21.6166 9.33238 21.6361C9.33238 21.6572 9.32589 21.6734 9.31616 21.6734C9.30805 21.6734 9.29994 21.6993 9.29994 21.7302C9.29994 21.761 9.29345 21.7869 9.28372 21.7869C9.27561 21.7869 9.2675 21.8129 9.2675 21.8453C9.2675 21.8761 9.26101 21.8988 9.2529 21.894C9.24479 21.8891 9.23344 21.9313 9.22695 21.9897C9.22208 22.0481 9.20911 22.0983 9.201 22.1032C9.19289 22.1097 9.1864 22.1373 9.1864 22.1681C9.1864 22.1989 9.17991 22.2281 9.17018 22.233C9.16207 22.2378 9.15396 22.2686 9.15396 22.2995C9.15396 22.3335 9.14747 22.353 9.13774 22.3465C9.12801 22.34 9.12152 22.366 9.12152 22.4098C9.12152 22.4503 9.11503 22.4844 9.10692 22.4844C9.09882 22.4844 9.08746 22.5428 9.08097 22.6141C9.07449 22.6855 9.06313 22.7439 9.05502 22.7439C9.04691 22.7439 9.04042 22.7763 9.04042 22.8169C9.04042 22.8574 9.03394 22.8899 9.02421 22.8899C9.0161 22.8899 9.00799 22.9223 9.00799 22.9628C9.00799 23.0034 9.0015 23.0358 8.99177 23.0358C8.98366 23.0358 8.97555 23.0731 8.97555 23.1186C8.97555 23.1623 8.96906 23.1964 8.96095 23.1915C8.95284 23.1867 8.94149 23.258 8.935 23.3521C8.92851 23.4462 8.91716 23.5273 8.90905 23.5322C8.90094 23.537 8.89445 23.5759 8.89445 23.6214C8.89445 23.6652 8.88796 23.7008 8.87823 23.7008C8.8685 23.7008 8.86201 23.7462 8.86201 23.8063C8.86201 23.8663 8.85552 23.9117 8.84579 23.9117C8.83606 23.9117 8.82957 23.9571 8.82957 24.0171C8.82957 24.0755 8.82308 24.1225 8.81497 24.1225C8.80686 24.1225 8.79551 24.2361 8.78902 24.3739C8.78253 24.5118 8.77118 24.6302 8.76307 24.6351C8.75496 24.6399 8.74847 24.7162 8.74847 24.8054C8.74847 24.9011 8.74198 24.966 8.73225 24.966C8.72252 24.966 8.71603 25.0535 8.71603 25.1963C8.71603 25.352 8.71117 25.4201 8.69981 25.4039C8.69008 25.3877 8.68359 25.725 8.68359 26.369C8.68522 27.1945 8.68846 27.3535 8.7063 27.3292C8.71765 27.3146 8.73387 27.3016 8.74198 27.3016C8.75009 27.3016 8.80524 27.334 8.86525 27.373C8.92527 27.4119 9.00312 27.4492 9.03556 27.4557C9.12314 27.4703 9.50917 27.5838 9.6811 27.6422C10.3899 27.8887 10.7808 28.1223 10.9057 28.3769C10.9787 28.5278 11.003 28.6429 11.0192 28.93C11.0468 29.3907 11.0581 29.4637 11.1263 29.5739C11.1993 29.6907 11.2755 29.7215 11.5626 29.7507C11.8205 29.7767 11.9664 29.827 12.4027 30.0443C12.912 30.2973 13.0418 30.3379 13.3954 30.3574C13.9436 30.3882 14.2566 30.4368 14.6832 30.5552C15.3142 30.732 15.7407 30.9737 15.9013 31.2429C15.9192 31.2721 15.924 31.3305 15.924 31.4538C15.9224 31.5998 15.9143 31.6452 15.8705 31.7749C15.7699 32.0701 15.6223 32.3426 15.2363 32.9476C14.8941 33.4812 14.8454 33.6224 14.7092 34.4382C14.6183 34.9864 14.5405 35.28 14.3961 35.6222C14.1983 36.0894 13.9112 36.4494 13.736 36.4494C13.4781 36.4494 12.9688 36.8046 12.7434 37.142C12.6314 37.3091 12.6039 37.3739 12.6266 37.4177C12.6379 37.4388 12.6525 37.455 12.6606 37.455C12.6671 37.455 12.6736 37.4632 12.6736 37.4713C12.6736 37.481 12.6898 37.5069 12.7109 37.528C12.7304 37.5491 12.7661 37.5897 12.7904 37.6205C12.8147 37.6497 12.8504 37.6919 12.8682 37.7129C12.8861 37.7356 12.8974 37.7632 12.8926 37.7746C12.8893 37.7875 12.8926 37.7924 12.9007 37.7875C12.9218 37.7746 13.0807 37.9433 13.071 37.9692C13.0677 37.9822 13.0742 37.9854 13.0905 37.9789C13.1115 37.9708 13.1148 37.9757 13.1067 37.9968C13.1002 38.013 13.1018 38.0211 13.1115 38.0146C13.1213 38.0081 13.1391 38.0162 13.1537 38.0292C13.1667 38.0438 13.1748 38.0552 13.1699 38.0552C13.1651 38.0552 13.2072 38.1038 13.2656 38.1638C13.324 38.2255 13.3678 38.2839 13.3629 38.2952C13.3581 38.3082 13.3629 38.3114 13.3727 38.305C13.3824 38.2985 13.4603 38.3682 13.5511 38.4623C13.6403 38.5547 13.7198 38.6375 13.7279 38.6472C13.7506 38.6683 13.856 38.7737 13.8706 38.7883C13.8771 38.7948 13.9582 38.8726 14.0507 38.9618C14.1447 39.0527 14.2145 39.1305 14.208 39.1403C14.2015 39.15 14.2047 39.1549 14.2177 39.15C14.2291 39.1451 14.2875 39.1889 14.3491 39.2473C14.4091 39.3057 14.4578 39.3479 14.4578 39.343C14.4578 39.3381 14.4691 39.3463 14.4837 39.3592C14.4967 39.3738 14.5048 39.3917 14.4983 39.4014C14.4918 39.4111 14.4999 39.4128 14.5162 39.4063C14.5372 39.3982 14.5421 39.4014 14.534 39.4225C14.5275 39.4387 14.5308 39.4452 14.5437 39.4419C14.5697 39.4322 14.7384 39.5912 14.7254 39.6123C14.7205 39.6204 14.7254 39.6236 14.7384 39.6204C14.7497 39.6155 14.7773 39.6269 14.8 39.6447C14.8211 39.6625 14.8633 39.6982 14.8925 39.7225C14.9233 39.7469 14.9638 39.7826 14.9849 39.802C15.006 39.8231 15.0287 39.8393 15.0336 39.8393C15.0384 39.8393 15.0595 39.8539 15.079 39.8734C15.0984 39.8929 15.1406 39.9269 15.1714 39.9496C15.2022 39.9739 15.2541 40.0177 15.285 40.0453C15.3158 40.0745 15.3466 40.0988 15.3547 40.0988C15.3612 40.0988 15.3888 40.1215 15.418 40.1475C15.4455 40.1751 15.4747 40.1962 15.4812 40.1962C15.4877 40.1962 15.512 40.214 15.5347 40.2367C15.5575 40.2594 15.5834 40.2773 15.5931 40.2773C15.6012 40.2773 15.6094 40.2821 15.6094 40.2886C15.6094 40.2967 15.6369 40.3194 15.6694 40.3421C15.7018 40.3648 15.7456 40.3989 15.7651 40.4184C15.7862 40.4395 15.8105 40.4557 15.8202 40.4557C15.8283 40.4557 15.8364 40.4638 15.8364 40.4735C15.8364 40.4816 15.8429 40.4865 15.851 40.4816C15.8575 40.4768 15.877 40.4865 15.8932 40.5043C15.9094 40.5222 15.9321 40.5368 15.9451 40.5368C15.9581 40.5368 15.9629 40.5433 15.9581 40.553C15.9532 40.5627 15.9597 40.5692 15.9727 40.5692C15.9873 40.5692 15.9986 40.5757 15.9986 40.5854C15.9986 40.5935 16.01 40.6016 16.023 40.6016C16.0359 40.6016 16.0635 40.6195 16.0862 40.6422C16.1089 40.6649 16.1349 40.6827 16.1446 40.6827C16.1527 40.6827 16.1608 40.6892 16.1608 40.699C16.1608 40.7071 16.1722 40.7152 16.1852 40.7152C16.1981 40.7152 16.2095 40.7201 16.2095 40.7265C16.2095 40.7346 16.2468 40.7606 16.2906 40.7882C16.336 40.8141 16.3717 40.8417 16.3717 40.8482C16.3717 40.8547 16.383 40.8612 16.396 40.8612C16.409 40.8612 16.4203 40.8676 16.4203 40.8741C16.4203 40.8822 16.4495 40.9017 16.4852 40.9196C16.5209 40.9358 16.5501 40.9552 16.5501 40.9617C16.5501 40.9698 16.5582 40.9747 16.5663 40.9747C16.576 40.9747 16.5971 40.9877 16.615 41.0023C16.6312 41.0185 16.6734 41.0461 16.7074 41.0639C16.7415 41.0817 16.7804 41.1077 16.7934 41.1207C16.8064 41.1337 16.8485 41.1596 16.8858 41.1774C16.9248 41.1953 16.9556 41.2147 16.9556 41.2212C16.9556 41.2293 16.9669 41.2342 16.9799 41.2342C16.9929 41.2342 17.0042 41.2407 17.0042 41.2504C17.0042 41.2585 17.0156 41.2667 17.0302 41.2667C17.0432 41.2667 17.0497 41.2731 17.0448 41.2829C17.0399 41.291 17.0464 41.2991 17.061 41.2991C17.074 41.2991 17.1145 41.3169 17.1502 41.3396C17.1859 41.3623 17.2216 41.3802 17.2313 41.3802C17.2394 41.3802 17.2475 41.3867 17.2475 41.3964C17.2475 41.4045 17.2589 41.4126 17.2719 41.4126C17.2848 41.4126 17.2962 41.4175 17.2962 41.424C17.2962 41.4321 17.3286 41.4516 17.3692 41.4694C17.4097 41.4872 17.4422 41.5067 17.4422 41.5132C17.4422 41.5213 17.4535 41.5262 17.4665 41.5262C17.4795 41.5262 17.4908 41.5327 17.4908 41.5424C17.4908 41.5505 17.5022 41.5586 17.5152 41.5586C17.5281 41.5586 17.5395 41.5651 17.5395 41.5748C17.5395 41.5829 17.5508 41.591 17.5654 41.591C17.5946 41.591 17.6903 41.6413 17.6984 41.6592C17.7017 41.6673 17.7147 41.6721 17.7276 41.6721C17.7406 41.6721 17.7503 41.677 17.7503 41.6851C17.7503 41.6981 17.8687 41.7532 17.8963 41.7532C17.9061 41.7532 17.9125 41.7597 17.9125 41.7695C17.9125 41.7776 17.9239 41.7857 17.9369 41.7857C17.9498 41.7857 17.9612 41.7922 17.9612 41.8019C17.9612 41.81 17.9758 41.8181 17.9936 41.8181C18.0115 41.8181 18.0261 41.8246 18.0261 41.8343C18.0261 41.8424 18.0374 41.8506 18.0504 41.8506C18.0634 41.8506 18.0747 41.857 18.0747 41.8668C18.0747 41.8749 18.0861 41.883 18.0991 41.883C18.1266 41.883 18.2905 41.9657 18.2986 41.9836C18.3018 41.9917 18.318 41.9965 18.3359 41.9965C18.3521 41.9965 18.3667 42.0046 18.3667 42.0144C18.3667 42.0225 18.3732 42.0273 18.3797 42.0225C18.3878 42.0176 18.417 42.029 18.4445 42.0468C18.4737 42.063 18.5078 42.0776 18.5208 42.0776C18.5337 42.0776 18.5451 42.0841 18.5451 42.0938C18.5451 42.102 18.5613 42.1101 18.5808 42.1101C18.6003 42.1101 18.61 42.1149 18.6051 42.1214C18.5938 42.1312 18.6765 42.1685 18.7527 42.1863C18.7722 42.1912 18.7884 42.2009 18.7884 42.209C18.7884 42.2171 18.803 42.2236 18.8208 42.2236C18.8387 42.2236 18.8533 42.2301 18.8533 42.2398C18.8533 42.2479 18.8679 42.256 18.8857 42.256C18.9036 42.256 18.9182 42.2625 18.9182 42.2723C18.9182 42.2804 18.9295 42.2885 18.9425 42.2885C18.9555 42.2885 19.0041 42.3063 19.0512 42.329C19.0966 42.3517 19.1452 42.3696 19.1566 42.3696C19.1696 42.3696 19.1744 42.3761 19.1696 42.3858C19.1631 42.3955 19.1777 42.402 19.2004 42.402C19.2231 42.402 19.2425 42.4085 19.2425 42.4182C19.2425 42.4264 19.2539 42.4345 19.2685 42.4345C19.2928 42.4345 19.3755 42.4669 19.4404 42.501C19.4566 42.5091 19.481 42.5156 19.4939 42.5156C19.5069 42.5156 19.5183 42.522 19.5183 42.5318C19.5183 42.5399 19.5377 42.548 19.5604 42.548C19.5832 42.548 19.5978 42.5545 19.5913 42.5642C19.5864 42.5739 19.5978 42.5804 19.6188 42.5804C19.6399 42.5804 19.6772 42.5918 19.7032 42.6048C19.7275 42.6177 19.7632 42.6291 19.7794 42.6291C19.7973 42.6291 19.8102 42.6356 19.8102 42.6453C19.8102 42.6534 19.8297 42.6615 19.8524 42.6615C19.8751 42.6615 19.8897 42.668 19.8832 42.6778C19.8767 42.6875 19.8913 42.694 19.914 42.694C19.9367 42.694 19.9562 42.7005 19.9562 42.7086C19.9562 42.7167 19.9854 42.7264 20.0211 42.7329C20.0584 42.7378 20.1022 42.7507 20.1184 42.7589C20.1362 42.7686 20.1654 42.7816 20.1833 42.7913C20.2011 42.7994 20.2303 42.8075 20.2482 42.8075C20.2676 42.8075 20.2774 42.814 20.2725 42.8237C20.266 42.8335 20.2838 42.84 20.3114 42.84C20.339 42.84 20.3617 42.8464 20.3617 42.8545C20.3617 42.8627 20.3941 42.874 20.4347 42.8789C20.4736 42.8854 20.5109 42.8967 20.5158 42.9065C20.5223 42.9146 20.5434 42.921 20.5661 42.921C20.5871 42.921 20.605 42.9275 20.605 42.9373C20.605 42.9454 20.6277 42.9535 20.6536 42.9535C20.6812 42.9535 20.7023 42.96 20.7023 42.9697C20.7023 42.9778 20.725 42.9859 20.751 42.9859C20.7785 42.9859 20.7996 42.9924 20.7996 43.0005C20.7996 43.0086 20.8369 43.02 20.8807 43.0265C20.9261 43.033 20.9618 43.0443 20.9618 43.0524C20.9618 43.0605 20.9845 43.067 21.0105 43.067C21.0381 43.067 21.0591 43.0735 21.0591 43.0832C21.0591 43.0914 21.0851 43.0995 21.1175 43.0995C21.1516 43.0995 21.1711 43.106 21.1646 43.1157C21.1581 43.1254 21.1759 43.1319 21.2084 43.1319C21.2376 43.1335 21.2911 43.1433 21.3268 43.1562C21.3624 43.1692 21.4079 43.1806 21.4289 43.1806C21.4484 43.1806 21.4646 43.187 21.4646 43.1968C21.4646 43.2049 21.4906 43.213 21.5214 43.213C21.5522 43.213 21.5782 43.2195 21.5782 43.2292C21.5782 43.2373 21.6041 43.2454 21.6366 43.2454C21.6674 43.2454 21.6901 43.2519 21.6852 43.26C21.6803 43.2681 21.7225 43.2795 21.7809 43.286C21.8393 43.2909 21.8896 43.3038 21.8944 43.3119C21.9009 43.3201 21.9285 43.3265 21.9593 43.3265C21.9901 43.3265 22.0193 43.333 22.0242 43.3428C22.0291 43.3509 22.0599 43.359 22.0907 43.359C22.1215 43.359 22.1459 43.3655 22.1459 43.3752C22.1459 43.3833 22.175 43.3914 22.2107 43.3914C22.2464 43.3914 22.2756 43.3979 22.2756 43.406C22.2756 43.4141 22.334 43.4255 22.4054 43.432C22.4767 43.4385 22.5351 43.4498 22.5351 43.4579C22.5351 43.466 22.5676 43.4725 22.6081 43.4725C22.6487 43.4725 22.6811 43.479 22.6811 43.4887C22.6811 43.4968 22.7135 43.505 22.7541 43.505C22.7946 43.505 22.8271 43.5114 22.8271 43.5212C22.8271 43.5293 22.8644 43.5374 22.9098 43.5374C22.9536 43.5374 22.9876 43.5439 22.9828 43.552C22.9779 43.5601 23.0493 43.5715 23.1434 43.5779C23.2374 43.5844 23.3185 43.5958 23.3234 43.6039C23.3283 43.612 23.3672 43.6185 23.4126 43.6185C23.4564 43.6185 23.4921 43.625 23.4921 43.6347C23.4921 43.6444 23.5375 43.6509 23.5975 43.6509C23.6575 43.6509 23.7029 43.6574 23.7029 43.6671C23.7029 43.6769 23.7483 43.6834 23.8084 43.6834C23.8668 43.6834 23.9138 43.6899 23.9138 43.698C23.9138 43.7061 24.0273 43.7174 24.1652 43.7239C24.3031 43.7304 24.4215 43.7418 24.4263 43.7499C24.4312 43.758 24.5074 43.7645 24.5966 43.7645C24.6923 43.7645 24.7572 43.771 24.7572 43.7807C24.7572 43.7904 24.8448 43.7969 24.9891 43.7969C25.1432 43.7969 25.2114 43.8018 25.1951 43.8131C25.1789 43.8229 25.513 43.8293 26.1521 43.8293C26.7911 43.8293 27.1253 43.8229 27.109 43.8131C27.0928 43.8018 27.1609 43.7969 27.3167 43.7969C27.4594 43.7969 27.547 43.7904 27.547 43.7807C27.547 43.771 27.6119 43.7645 27.7075 43.7645C27.7968 43.7645 27.873 43.758 27.8779 43.7499C27.8827 43.7418 28.0011 43.7304 28.139 43.7239C28.2769 43.7174 28.3904 43.7061 28.3904 43.698C28.3904 43.6899 28.4374 43.6834 28.4958 43.6834C28.5558 43.6834 28.6012 43.6769 28.6012 43.6671C28.6012 43.6574 28.6467 43.6509 28.7067 43.6509C28.7667 43.6509 28.8121 43.6444 28.8121 43.6347C28.8121 43.625 28.8478 43.6185 28.8916 43.6185C28.937 43.6185 28.9759 43.612 28.9808 43.6039C28.9857 43.5958 29.0667 43.5844 29.1608 43.5779C29.2549 43.5715 29.3263 43.5601 29.3214 43.552C29.3165 43.5439 29.3506 43.5374 29.3944 43.5374C29.4398 43.5374 29.4771 43.5293 29.4771 43.5212C29.4771 43.5114 29.5095 43.505 29.5501 43.505C29.5906 43.505 29.6231 43.4968 29.6231 43.4887C29.6231 43.479 29.6555 43.4725 29.6961 43.4725C29.7366 43.4725 29.7691 43.466 29.7691 43.4579C29.7691 43.4498 29.8274 43.4385 29.8988 43.432C29.9702 43.4255 30.0286 43.4141 30.0286 43.406C30.0286 43.3979 30.0626 43.3914 30.1032 43.3914C30.147 43.3914 30.1729 43.3849 30.1664 43.3752C30.16 43.3655 30.1794 43.359 30.2135 43.359C30.2443 43.359 30.2751 43.3509 30.28 43.3428C30.2848 43.333 30.314 43.3265 30.3449 43.3265C30.3757 43.3265 30.4032 43.3201 30.4097 43.3119C30.4146 43.3038 30.4649 43.2909 30.5233 43.286C30.5817 43.2795 30.6238 43.2681 30.619 43.26C30.6141 43.2519 30.6368 43.2454 30.6676 43.2454C30.7001 43.2454 30.726 43.2373 30.726 43.2292C30.726 43.2195 30.752 43.213 30.7828 43.213C30.8136 43.213 30.8396 43.2049 30.8396 43.1968C30.8396 43.187 30.8558 43.1806 30.8769 43.1806C30.8963 43.1806 30.9417 43.1692 30.9774 43.1562C31.0131 43.1433 31.0666 43.1335 31.0958 43.1319C31.1283 43.1319 31.1461 43.1254 31.1396 43.1157C31.1331 43.106 31.1526 43.0995 31.1866 43.0995C31.2191 43.0995 31.245 43.0914 31.245 43.0832C31.245 43.0735 31.2677 43.067 31.2937 43.067C31.3213 43.067 31.3424 43.0605 31.3424 43.0524C31.3424 43.0411 31.404 43.0249 31.4916 43.0119C31.4964 43.0103 31.5078 43.0054 31.5143 42.9989C31.5208 42.9908 31.5435 42.9859 31.5646 42.9859C31.5857 42.9859 31.6019 42.9778 31.6019 42.9697C31.6019 42.96 31.6246 42.9535 31.6505 42.9535C31.6781 42.9535 31.6992 42.9454 31.6992 42.9373C31.6992 42.9275 31.717 42.921 31.7381 42.921C31.7608 42.921 31.7819 42.9146 31.7884 42.9065C31.7933 42.8967 31.8306 42.8854 31.8695 42.8789C31.91 42.874 31.9425 42.8627 31.9425 42.8545C31.9425 42.8464 31.9652 42.84 31.9928 42.84C32.0203 42.84 32.0382 42.8335 32.0317 42.8237C32.0252 42.814 32.043 42.8075 32.0706 42.8075C32.0982 42.8075 32.1209 42.7994 32.1209 42.7913C32.1209 42.7816 32.1355 42.7751 32.1517 42.7751C32.1696 42.7751 32.1874 42.7686 32.1939 42.7605C32.1988 42.7507 32.2361 42.7394 32.275 42.7329C32.3155 42.728 32.348 42.7167 32.348 42.7086C32.348 42.7005 32.3674 42.694 32.3901 42.694C32.4129 42.694 32.4274 42.6875 32.421 42.6778C32.4145 42.668 32.4291 42.6615 32.4518 42.6615C32.4745 42.6615 32.4939 42.6534 32.4939 42.6453C32.4939 42.6356 32.5069 42.6291 32.5248 42.6291C32.541 42.6291 32.5767 42.6177 32.601 42.6048C32.627 42.5918 32.6643 42.5804 32.6853 42.5804C32.7064 42.5804 32.7178 42.5739 32.7129 42.5642C32.7064 42.5545 32.721 42.548 32.7437 42.548C32.7664 42.548 32.7859 42.5399 32.7859 42.5318C32.7859 42.522 32.7973 42.5156 32.8102 42.5156C32.8232 42.5156 32.8475 42.5091 32.8638 42.501C32.9286 42.4669 33.0114 42.4345 33.0357 42.4345C33.0503 42.4345 33.0616 42.4264 33.0616 42.4182C33.0616 42.4085 33.0795 42.402 33.1006 42.402C33.1216 42.402 33.1427 42.3955 33.146 42.389C33.1541 42.3696 33.3341 42.2885 33.3698 42.2885C33.3876 42.2885 33.4022 42.2804 33.4022 42.2723C33.4022 42.2625 33.4168 42.256 33.4363 42.256C33.4541 42.256 33.4639 42.2496 33.459 42.2398C33.4541 42.2301 33.4639 42.2236 33.4817 42.2236C33.5012 42.2236 33.5158 42.2171 33.5158 42.209C33.5158 42.2009 33.532 42.1912 33.5531 42.1863C33.6277 42.1685 33.7104 42.1312 33.6991 42.1214C33.6942 42.1149 33.7039 42.1101 33.7234 42.1101C33.7429 42.1101 33.7591 42.102 33.7591 42.0938C33.7591 42.0841 33.7704 42.0776 33.7834 42.0776C33.7964 42.0776 33.8304 42.063 33.8596 42.0468C33.8872 42.029 33.9164 42.0176 33.9245 42.0225C33.931 42.0273 33.9375 42.0225 33.9375 42.0144C33.9375 42.0046 33.9521 41.9965 33.9683 41.9965C33.9862 41.9965 34.0024 41.9917 34.0056 41.9836C34.0137 41.9657 34.1775 41.883 34.2051 41.883C34.2181 41.883 34.2294 41.8749 34.2294 41.8668C34.2294 41.857 34.2408 41.8506 34.2538 41.8506C34.2667 41.8506 34.2781 41.8424 34.2781 41.8343C34.2781 41.8246 34.2927 41.8181 34.3105 41.8181C34.3284 41.8181 34.343 41.81 34.343 41.8019C34.343 41.7922 34.3543 41.7857 34.3673 41.7857C34.3803 41.7857 34.3916 41.7792 34.3916 41.7711C34.3916 41.763 34.4127 41.7516 34.4403 41.7451C34.4663 41.7386 34.4922 41.7273 34.4971 41.7192C34.5036 41.7111 34.5214 41.7046 34.5392 41.7046C34.5571 41.7046 34.5668 41.6981 34.5619 41.6884C34.5571 41.6803 34.5636 41.6721 34.5765 41.6721C34.5911 41.6721 34.6025 41.6657 34.6025 41.6592C34.6025 41.6527 34.6398 41.6332 34.6836 41.6154C34.729 41.5975 34.7647 41.5781 34.7647 41.5716C34.7647 41.5651 34.7793 41.5586 34.7988 41.5586C34.8166 41.5586 34.8263 41.5505 34.8215 41.5424C34.8166 41.5327 34.8231 41.5262 34.8361 41.5262C34.8507 41.5262 34.862 41.5213 34.862 41.5132C34.862 41.5067 34.8944 41.4872 34.935 41.4694C34.9755 41.4516 35.008 41.4321 35.008 41.424C35.008 41.4175 35.0193 41.4126 35.0323 41.4126C35.0453 41.4126 35.0566 41.4045 35.0566 41.3964C35.0566 41.3867 35.0712 41.3802 35.0891 41.3802C35.1069 41.3802 35.1215 41.3753 35.1215 41.3672C35.1215 41.3526 35.214 41.2991 35.2415 41.2991C35.2513 41.2991 35.2707 41.2845 35.2837 41.2667C35.2967 41.2488 35.3162 41.2342 35.3275 41.2342C35.3389 41.2342 35.3486 41.2277 35.3486 41.2196C35.3486 41.2066 35.4086 41.1807 35.4346 41.1839C35.441 41.1856 35.4459 41.1774 35.4459 41.1693C35.4459 41.1596 35.454 41.1531 35.4638 41.1531C35.4751 41.1531 35.4946 41.1401 35.5092 41.1239C35.5238 41.1093 35.5643 41.0817 35.6 41.0639C35.6357 41.0461 35.6762 41.0185 35.6908 41.0023C35.7054 40.9877 35.7249 40.9747 35.7362 40.9747C35.746 40.9747 35.7541 40.9698 35.7541 40.9617C35.7541 40.9552 35.7833 40.9358 35.819 40.9196C35.8546 40.9017 35.8838 40.8822 35.8838 40.8741C35.8838 40.8676 35.892 40.8612 35.9001 40.8612C35.9098 40.8612 35.9325 40.8482 35.9503 40.8303C35.9682 40.8141 36.0104 40.7866 36.0428 40.7703C36.0752 40.7525 36.1142 40.7265 36.1288 40.7103C36.1434 40.6957 36.1612 40.6827 36.1693 40.6827C36.1774 40.6827 36.1953 40.6681 36.2082 40.6519C36.2196 40.6341 36.2358 40.6227 36.2439 40.6276C36.2504 40.6325 36.2569 40.6276 36.2569 40.6195C36.2569 40.6098 36.2682 40.6016 36.2812 40.6016C36.2942 40.6016 36.3056 40.5935 36.3056 40.5854C36.3056 40.5757 36.3169 40.5692 36.3315 40.5692C36.3445 40.5692 36.351 40.5611 36.3461 40.553C36.3412 40.5433 36.3461 40.5368 36.3591 40.5368C36.3704 40.5368 36.3964 40.5222 36.4142 40.506C36.4337 40.4881 36.4531 40.4784 36.458 40.4832C36.4629 40.4897 36.4677 40.4849 36.4677 40.4751C36.4677 40.4638 36.4759 40.4557 36.484 40.4557C36.4937 40.4557 36.5229 40.4346 36.5521 40.407C36.5797 40.3811 36.6089 40.3584 36.6153 40.3584C36.6218 40.3584 36.6462 40.3405 36.6689 40.3178C36.6916 40.2951 36.7143 40.2773 36.7192 40.2773C36.724 40.2773 36.7467 40.2594 36.7694 40.2367C36.7921 40.214 36.8165 40.1962 36.823 40.1962C36.8294 40.1962 36.8586 40.1735 36.8862 40.1475C36.9154 40.1199 36.943 40.0988 36.9495 40.0988C36.9576 40.0988 36.9949 40.0696 37.0322 40.034C37.0711 39.9983 37.1084 39.9691 37.1133 39.9691C37.1198 39.9691 37.1555 39.9399 37.1944 39.9042C37.2317 39.8685 37.2658 39.8393 37.2706 39.8393C37.2755 39.8393 37.2982 39.8231 37.3193 39.802C37.3404 39.7826 37.3809 39.7469 37.4117 39.7225C37.4409 39.6982 37.4831 39.6625 37.5042 39.6447C37.5269 39.6269 37.5545 39.6155 37.5658 39.6204C37.5788 39.6236 37.5837 39.6204 37.5788 39.6123C37.5674 39.5928 37.7296 39.4403 37.7588 39.4436C37.7702 39.4452 37.775 39.4355 37.7686 39.4209C37.7621 39.403 37.7669 39.3982 37.788 39.4063C37.8042 39.4128 37.8124 39.4111 37.8059 39.4014C37.7945 39.3819 37.8383 39.3333 37.8529 39.3479C37.8578 39.3544 37.8626 39.3495 37.8626 39.3398C37.8626 39.3284 37.8707 39.3203 37.8805 39.3203C37.8902 39.3203 37.9275 39.2879 37.9648 39.2473C38.0005 39.2068 38.0394 39.1759 38.0508 39.1808C38.0654 39.1857 38.0686 39.1808 38.0621 39.163C38.054 39.1435 38.0589 39.1386 38.0784 39.1468C38.0978 39.1532 38.1011 39.15 38.0946 39.1305C38.0865 39.1094 38.0913 39.1062 38.1124 39.1143C38.1303 39.1208 38.1367 39.1192 38.1286 39.1078C38.1205 39.0948 38.3054 38.9018 38.4336 38.7915C38.4449 38.7818 38.466 38.7575 38.479 38.7396C38.4952 38.7137 38.5049 38.7104 38.5147 38.725C38.5228 38.738 38.5276 38.7315 38.5276 38.7072C38.5276 38.6861 38.5341 38.6731 38.5406 38.678C38.5487 38.6829 38.5649 38.6715 38.5779 38.6521C38.6217 38.5888 38.685 38.5272 38.6963 38.5369C38.7012 38.5418 38.7061 38.5385 38.7061 38.5272C38.7061 38.4963 38.8796 38.326 38.8991 38.3374C38.9104 38.3455 38.912 38.339 38.9056 38.3212C38.8974 38.3001 38.9007 38.2952 38.9218 38.3033C38.9412 38.3098 38.9445 38.3066 38.938 38.2871C38.9299 38.2676 38.9347 38.2628 38.9542 38.2709C38.9721 38.2774 38.9769 38.2741 38.9721 38.2595C38.9672 38.2466 38.9818 38.2222 39.0045 38.2044C39.0272 38.1866 39.0467 38.1638 39.0467 38.1525C39.0467 38.1428 39.0548 38.1395 39.0629 38.1444C39.0726 38.1492 39.0791 38.146 39.0791 38.1346C39.0791 38.1249 39.0953 38.1022 39.1148 38.086C39.1326 38.0681 39.144 38.0552 39.1375 38.0552C39.131 38.0552 39.1375 38.0438 39.1505 38.0292C39.1651 38.0162 39.1829 38.0081 39.1926 38.0146C39.2024 38.0211 39.204 38.013 39.1975 37.9968C39.1894 37.9741 39.1926 37.9708 39.2153 37.9789C39.2332 37.9854 39.2397 37.9838 39.2332 37.9725C39.2267 37.9643 39.2413 37.9384 39.264 37.9173C39.2867 37.8962 39.3062 37.8703 39.3062 37.8605C39.3062 37.8508 39.3143 37.8476 39.3224 37.8524C39.3321 37.8573 39.3386 37.854 39.3386 37.8443C39.3386 37.8167 39.384 37.7762 39.4035 37.7875C39.4116 37.7924 39.4148 37.7875 39.41 37.7746C39.4051 37.7616 39.4197 37.7324 39.4424 37.7097C39.4651 37.6854 39.4846 37.6627 39.4846 37.6578C39.4846 37.6529 39.5008 37.6318 39.5219 37.6108C39.5414 37.5897 39.5673 37.5572 39.5803 37.5394C39.5933 37.5199 39.6095 37.5086 39.6176 37.5134C39.6241 37.5183 39.6306 37.5053 39.6306 37.4842C39.6306 37.455 39.6338 37.4518 39.6468 37.4713C39.6598 37.4924 39.663 37.4907 39.663 37.4648C39.663 37.4486 39.6808 37.4177 39.7036 37.3967C39.7263 37.3756 39.7441 37.3512 39.7441 37.3415C39.7441 37.3318 39.7522 37.3285 39.7603 37.3334C39.7701 37.3383 39.7765 37.3285 39.7765 37.3091C39.7765 37.2896 39.7847 37.2799 39.7928 37.2847C39.8025 37.2896 39.809 37.2831 39.809 37.2701C39.809 37.2572 39.8268 37.2328 39.8495 37.215C39.8722 37.1972 39.8901 37.1712 39.8901 37.155C39.8901 37.1404 39.8982 37.1339 39.9063 37.1388C39.916 37.1436 39.9225 37.1371 39.9225 37.1209C39.9225 37.0998 39.9274 37.0982 39.9452 37.1128C39.9647 37.129 39.9663 37.1258 39.9598 37.0998C39.955 37.0771 39.9598 37.0625 39.9777 37.056C39.9923 37.0512 40.0036 37.035 40.0036 37.022C40.0036 36.9928 40.0442 36.9506 40.0588 36.9636C40.0636 36.9701 40.0685 36.9571 40.0685 36.9376C40.0685 36.9182 40.075 36.9068 40.0847 36.9117C40.0944 36.9166 40.1009 36.9133 40.1009 36.9036C40.1009 36.876 40.1593 36.8046 40.1723 36.8176C40.1772 36.8225 40.182 36.8144 40.182 36.7965C40.182 36.7787 40.1966 36.7544 40.2145 36.7414C40.2323 36.7284 40.2469 36.7089 40.2469 36.6976C40.2469 36.6862 40.255 36.6765 40.2648 36.6765C40.2729 36.6765 40.2777 36.67 40.2729 36.6635C40.268 36.6554 40.2794 36.6392 40.2972 36.6278C40.3134 36.6149 40.328 36.5905 40.328 36.5743C40.328 36.5581 40.3361 36.55 40.3442 36.5549C40.354 36.5597 40.3605 36.5532 40.3605 36.537C40.3605 36.5159 40.3653 36.5143 40.3832 36.5289C40.401 36.5435 40.4026 36.5403 40.3978 36.5078C40.3929 36.4819 40.4026 36.4575 40.4318 36.4283C40.4545 36.4056 40.474 36.3781 40.474 36.3683C40.474 36.3602 40.4821 36.3521 40.4902 36.3521C40.4999 36.3521 40.5064 36.3408 40.5064 36.3262C40.5064 36.3132 40.5129 36.3051 40.521 36.3099C40.5291 36.3148 40.5405 36.3018 40.5454 36.2791C40.5518 36.2564 40.5632 36.2386 40.5713 36.2386C40.581 36.2386 40.5875 36.2272 40.5875 36.2126C40.5875 36.1997 40.5956 36.1932 40.6037 36.198C40.6135 36.2029 40.62 36.1932 40.62 36.1753C40.62 36.1559 40.6281 36.1413 40.6362 36.1413C40.6459 36.1413 40.6524 36.1299 40.6524 36.1153C40.6524 36.1023 40.6589 36.0942 40.667 36.0991C40.6751 36.104 40.6865 36.091 40.6913 36.0683C40.6978 36.0456 40.7092 36.0277 40.7173 36.0277C40.727 36.0277 40.7335 36.0131 40.7335 35.9937C40.7335 35.9758 40.7416 35.9661 40.7497 35.971C40.7595 35.9758 40.7659 35.9645 40.7659 35.9434C40.7659 35.9142 40.7692 35.9109 40.7822 35.9304C40.7951 35.9499 40.7984 35.9482 40.7984 35.9207C40.7984 35.9012 40.8097 35.8769 40.8227 35.8655C40.8357 35.8542 40.847 35.8347 40.847 35.8217C40.847 35.8071 40.8568 35.8006 40.8681 35.8055C40.8843 35.812 40.8892 35.8023 40.8843 35.7715C40.8779 35.7374 40.8811 35.7325 40.8941 35.752C40.9087 35.7715 40.9119 35.7698 40.9119 35.739C40.9119 35.7196 40.9184 35.7033 40.9265 35.7033C40.9346 35.7033 40.946 35.6855 40.9508 35.6628C40.9573 35.6401 40.9687 35.6222 40.9768 35.6222C40.9865 35.6222 40.993 35.6076 40.993 35.5898C40.993 35.572 41.0011 35.5574 41.0092 35.5574C41.019 35.5574 41.0255 35.546 41.0255 35.5314C41.0255 35.5184 41.0336 35.5119 41.0417 35.5168C41.0514 35.5217 41.0579 35.5119 41.0579 35.4925C41.0579 35.473 41.066 35.4633 41.0741 35.4681C41.0838 35.473 41.0903 35.4633 41.0903 35.4438C41.0903 35.426 41.1017 35.4065 41.1147 35.4016C41.1276 35.3952 41.139 35.3773 41.139 35.3611C41.139 35.3449 41.1471 35.3303 41.1552 35.3303C41.1649 35.3303 41.1714 35.3157 41.1714 35.2962C41.1714 35.2784 41.1795 35.2686 41.1876 35.2735C41.1974 35.2784 41.2039 35.2686 41.2039 35.2492C41.2039 35.2297 41.212 35.22 41.2201 35.2249C41.2298 35.2297 41.2363 35.22 41.2363 35.2021C41.2363 35.1843 41.2477 35.16 41.2606 35.1454C41.2736 35.1324 41.285 35.1081 41.285 35.0919C41.285 35.0675 41.2882 35.0659 41.3012 35.087C41.3142 35.1065 41.3174 35.1016 41.3174 35.0659C41.3174 35.04 41.3239 35.0237 41.3336 35.0302C41.3434 35.0351 41.3498 35.0254 41.3498 35.0075C41.3498 34.988 41.358 34.9735 41.3661 34.9735C41.3758 34.9735 41.3823 34.9589 41.3823 34.9426C41.3823 34.9248 41.3936 34.9005 41.4066 34.8859C41.4196 34.8729 41.4309 34.8502 41.4309 34.8356C41.4309 34.821 41.4391 34.8145 41.4472 34.8194C41.4569 34.8242 41.4634 34.8145 41.4634 34.795C41.4634 34.7756 41.4715 34.7658 41.4796 34.7707C41.4893 34.7756 41.4958 34.7658 41.4958 34.748C41.4958 34.7285 41.5023 34.7139 41.5104 34.7139C41.5185 34.7139 41.5299 34.688 41.5347 34.6572C41.5412 34.6264 41.5526 34.6004 41.5607 34.6004C41.5704 34.6004 41.5769 34.589 41.5769 34.5761C41.5769 34.5631 41.585 34.5517 41.5931 34.5517C41.6029 34.5517 41.6094 34.5371 41.6094 34.5177C41.6094 34.4998 41.6175 34.4901 41.6256 34.495C41.6353 34.4998 41.6418 34.4934 41.6418 34.4788C41.6418 34.4642 41.6532 34.4414 41.6661 34.4285C41.6791 34.4139 41.6905 34.3895 41.6905 34.3717C41.6905 34.3555 41.6986 34.3409 41.7067 34.3409C41.7164 34.3409 41.7229 34.3263 41.7229 34.3084C41.7229 34.2906 41.731 34.276 41.7391 34.276C41.7488 34.276 41.7553 34.2614 41.7553 34.2419C41.7553 34.2241 41.7634 34.2144 41.7716 34.2192C41.7813 34.2257 41.7878 34.2111 41.7878 34.1884C41.7878 34.1657 41.7959 34.1463 41.8056 34.1463C41.8137 34.1463 41.817 34.1398 41.8121 34.13C41.8072 34.1203 41.8105 34.1138 41.8186 34.1138C41.8283 34.1138 41.8364 34.0992 41.8364 34.0814C41.8364 34.0635 41.8445 34.0489 41.8527 34.0489C41.8624 34.0489 41.8689 34.0295 41.8689 34.0035C41.8689 33.9695 41.8721 33.9646 41.8851 33.9841C41.8964 34.0019 41.9013 33.9938 41.9013 33.9516C41.9013 33.9094 41.9062 33.9013 41.9175 33.9192C41.9305 33.9386 41.9338 33.9338 41.9338 33.8997C41.9338 33.8754 41.9451 33.8462 41.9581 33.8316C41.9727 33.8186 41.984 33.8024 41.9824 33.7975C41.9792 33.7472 41.9857 33.7245 41.9986 33.7327C42.0084 33.7391 42.0148 33.7245 42.0148 33.7002C42.0148 33.6759 42.0213 33.6613 42.0311 33.6678C42.0408 33.6743 42.0473 33.6597 42.0473 33.6353C42.0473 33.611 42.0538 33.5964 42.0635 33.6029C42.0732 33.6078 42.0797 33.5948 42.0797 33.5721C42.0797 33.551 42.0911 33.5218 42.1041 33.5072C42.117 33.4942 42.1284 33.4683 42.1284 33.4504C42.1284 33.431 42.1365 33.4164 42.1446 33.4164C42.1543 33.4164 42.1608 33.3969 42.1608 33.3742C42.1608 33.3515 42.1673 33.3369 42.177 33.3434C42.1868 33.3499 42.1933 33.3353 42.1933 33.3109C42.1933 33.2882 42.1998 33.272 42.2079 33.2769C42.216 33.2817 42.2257 33.2574 42.2322 33.2217C42.2371 33.1861 42.25 33.1569 42.2581 33.1569C42.2679 33.1569 42.2744 33.1374 42.2744 33.1147C42.2744 33.092 42.2808 33.0774 42.2906 33.0839C42.3003 33.0904 42.3068 33.0725 42.3068 33.0433C42.3068 33.0141 42.3133 32.9963 42.323 33.0028C42.3328 33.0093 42.3392 32.9914 42.3392 32.9622C42.3392 32.9346 42.3457 32.9152 42.3538 32.92C42.3619 32.9249 42.3717 32.9006 42.3782 32.8649C42.383 32.8292 42.396 32.8 42.4041 32.8C42.4138 32.8 42.4203 32.7773 42.4203 32.7497C42.4203 32.7222 42.4268 32.7043 42.4366 32.7108C42.4463 32.7173 42.4528 32.6995 42.4528 32.667C42.4528 32.6265 42.4576 32.62 42.469 32.6378C42.4804 32.6557 42.4852 32.6492 42.4852 32.6086C42.4852 32.5811 42.4917 32.5567 42.4998 32.5567C42.5095 32.5567 42.5209 32.5243 42.5274 32.4837C42.5323 32.4432 42.5436 32.4156 42.5517 32.4205C42.5598 32.4254 42.5663 32.4059 42.5663 32.3799C42.5663 32.3524 42.5744 32.3297 42.5825 32.3297C42.5923 32.3297 42.5988 32.3069 42.5988 32.2794C42.5988 32.2518 42.6052 32.234 42.615 32.2404C42.6247 32.2469 42.6312 32.2307 42.6312 32.2015C42.6312 32.1756 42.6393 32.1512 42.649 32.148C42.6571 32.1448 42.6701 32.1123 42.675 32.0734C42.6799 32.0361 42.6896 32.0101 42.6977 32.015C42.7058 32.0199 42.7123 31.9972 42.7123 31.9647C42.7123 31.929 42.7188 31.9096 42.7285 31.9161C42.7382 31.9225 42.7447 31.9031 42.7447 31.869C42.7447 31.8366 42.7528 31.8106 42.7609 31.8106C42.7707 31.8106 42.7772 31.7895 42.7772 31.7636C42.7772 31.7376 42.7853 31.7133 42.795 31.7101C42.8047 31.7068 42.8161 31.6695 42.821 31.6273C42.8258 31.5852 42.8372 31.5511 42.8437 31.5511C42.8518 31.5511 42.8583 31.5284 42.8583 31.5008C42.8583 31.4733 42.8648 31.4554 42.8745 31.4619C42.8842 31.4684 42.8907 31.4441 42.8907 31.4019C42.8907 31.3581 42.8956 31.3403 42.9053 31.3532C42.9134 31.3678 42.9215 31.3403 42.928 31.2802C42.9329 31.2283 42.9459 31.1846 42.9556 31.1813C42.9637 31.1781 42.9718 31.1456 42.9718 31.1116C42.9718 31.0726 42.9783 31.0499 42.988 31.0564C42.9978 31.0629 43.0042 31.0386 43.0042 30.9964C43.0042 30.9461 43.0091 30.9332 43.0205 30.951C43.0318 30.9688 43.0367 30.9526 43.0367 30.8942C43.0367 30.8439 43.0415 30.8212 43.0513 30.8342C43.0594 30.8488 43.0691 30.8147 43.0756 30.7418C43.0821 30.6785 43.0935 30.6266 43.1032 30.6266C43.1113 30.6266 43.1178 30.5974 43.1178 30.5617C43.1178 30.526 43.1259 30.4968 43.134 30.4968C43.1437 30.4968 43.1502 30.4676 43.1502 30.4303C43.1502 30.3914 43.1567 30.3687 43.1664 30.3752C43.1762 30.3817 43.1827 30.3557 43.1827 30.3103C43.1827 30.2698 43.1891 30.239 43.1973 30.2438C43.2054 30.2487 43.2167 30.1903 43.2232 30.1124C43.2313 30.0216 43.2394 29.9811 43.2492 29.9957C43.2589 30.0103 43.2638 29.9843 43.2638 29.921C43.2638 29.8529 43.2686 29.8302 43.28 29.8481C43.2913 29.8659 43.2962 29.8448 43.2962 29.7783C43.2962 29.7199 43.3027 29.6875 43.3124 29.694C43.3221 29.7005 43.3286 29.6696 43.3286 29.6129C43.3286 29.5626 43.3351 29.5253 43.3432 29.5302C43.3562 29.5383 43.3773 29.3777 43.3773 29.2593C43.3773 29.222 43.3838 29.2009 43.3935 29.2074C43.4032 29.2139 43.4097 29.1798 43.4097 29.1149C43.4097 29.0436 43.4146 29.0192 43.426 29.0371C43.4373 29.0533 43.4422 29.0225 43.4422 28.9349C43.4422 28.8538 43.4487 28.8116 43.4584 28.8181C43.4681 28.8246 43.4746 28.7857 43.4746 28.7143C43.4746 28.6527 43.4811 28.5992 43.4892 28.5959C43.4973 28.5927 43.5103 28.4791 43.5168 28.3445C43.5233 28.2083 43.5346 28.1012 43.5411 28.1061C43.5492 28.1109 43.5557 28.0315 43.5557 27.9309C43.5557 27.806 43.5606 27.7557 43.5719 27.772C43.5833 27.7882 43.5881 27.7136 43.5898 27.5449C43.5898 27.3892 43.5963 27.3064 43.6044 27.3259C43.6125 27.3438 43.619 26.9318 43.619 26.3608C43.619 25.7899 43.6125 25.3779 43.6044 25.3958C43.5963 25.4152 43.5898 25.3374 43.5898 25.1882C43.5881 25.0325 43.5817 24.9514 43.5719 24.9579C43.5622 24.9643 43.5557 24.9043 43.5557 24.7875C43.5557 24.6886 43.5492 24.6108 43.5411 24.6156C43.5346 24.6205 43.5233 24.5134 43.5168 24.3772C43.5103 24.2409 43.4989 24.1274 43.4892 24.1258C43.4811 24.1225 43.4746 24.0642 43.4746 23.996C43.4746 23.9084 43.4697 23.8793 43.4584 23.8955C43.447 23.9117 43.4422 23.8793 43.4422 23.79C43.4422 23.7008 43.4373 23.6684 43.426 23.6846C43.4146 23.7025 43.4097 23.6781 43.4097 23.6068C43.4097 23.5419 43.4032 23.5078 43.3935 23.5143C43.3838 23.5208 43.3773 23.4997 43.3773 23.4624C43.3773 23.344 43.3562 23.1834 43.3432 23.1915C43.3351 23.1964 43.3286 23.1542 43.3286 23.0975C43.3286 23.0261 43.3238 23.0018 43.3124 23.0196C43.3011 23.0375 43.2962 23.0147 43.2962 22.9466C43.2962 22.8785 43.2913 22.8558 43.28 22.8736C43.2686 22.8915 43.2638 22.8688 43.2638 22.8006C43.2638 22.7374 43.2589 22.7114 43.2492 22.726C43.2394 22.7406 43.2313 22.7001 43.2232 22.6093C43.2167 22.5314 43.2054 22.473 43.1973 22.4779C43.1891 22.4827 43.1827 22.4519 43.1827 22.4114C43.1827 22.366 43.1762 22.34 43.1664 22.3465C43.1567 22.353 43.1502 22.3303 43.1502 22.2914C43.1502 22.254 43.1437 22.2249 43.134 22.2249C43.1259 22.2249 43.1178 22.1957 43.1178 22.16C43.1178 22.1243 43.1113 22.0951 43.1032 22.0951C43.0935 22.0951 43.0821 22.0432 43.0756 21.9799C43.0691 21.9069 43.0594 21.8729 43.0513 21.8875C43.0415 21.9005 43.0367 21.8778 43.0367 21.8275C43.0367 21.7691 43.0318 21.7529 43.0205 21.7707C43.0091 21.7885 43.0042 21.7723 43.0042 21.7139C43.0042 21.6555 42.9994 21.6393 42.988 21.6572C42.9767 21.675 42.9718 21.6637 42.9718 21.6134C42.9718 21.5761 42.9637 21.5436 42.9556 21.5404C42.9459 21.5371 42.9329 21.4933 42.928 21.4414C42.9215 21.3814 42.9134 21.3539 42.9053 21.3685C42.8956 21.3814 42.8907 21.3636 42.8907 21.3198C42.8907 21.2776 42.8842 21.2533 42.8745 21.2598C42.8648 21.2663 42.8583 21.2484 42.8583 21.2209C42.8583 21.1933 42.8518 21.1706 42.842 21.1706C42.8339 21.1706 42.8258 21.1462 42.8258 21.1154C42.8258 21.0846 42.8177 21.0538 42.8096 21.0489C42.7999 21.0424 42.7966 21.0327 42.8015 21.0246C42.8064 21.0165 42.8031 21.0068 42.7934 21.0003C42.7853 20.9954 42.7772 20.9727 42.7772 20.95C42.7772 20.9289 42.7707 20.9111 42.7609 20.9111C42.7528 20.9111 42.7447 20.8851 42.7447 20.8527C42.7447 20.8186 42.7382 20.7992 42.7285 20.8056C42.7188 20.8121 42.7123 20.7927 42.7123 20.757C42.7123 20.7245 42.7058 20.7018 42.6977 20.7067C42.6896 20.7116 42.6799 20.6856 42.675 20.6483C42.6701 20.6094 42.6571 20.5769 42.649 20.5737C42.6393 20.5705 42.6312 20.5461 42.6312 20.5202C42.6312 20.491 42.6247 20.4748 42.615 20.4812C42.6052 20.4877 42.5988 20.4699 42.5988 20.4423C42.5988 20.4147 42.5923 20.392 42.5825 20.392C42.5744 20.392 42.5663 20.3693 42.5663 20.3418C42.5663 20.3142 42.5598 20.2963 42.5501 20.3028C42.5404 20.3093 42.5339 20.2931 42.5339 20.2671C42.5339 20.2412 42.5225 20.2055 42.5095 20.1877C42.4966 20.1715 42.4852 20.1341 42.4852 20.1082C42.4852 20.0709 42.4804 20.0644 42.469 20.0839C42.4576 20.1017 42.4528 20.0952 42.4528 20.0547C42.4528 20.0222 42.4463 20.0044 42.4366 20.0109C42.4268 20.0174 42.4203 20.0011 42.4203 19.972C42.4203 19.946 42.4122 19.9217 42.4025 19.9184C42.3944 19.9152 42.3814 19.8811 42.3765 19.8422C42.3701 19.7968 42.3619 19.7806 42.3538 19.7952C42.3441 19.8081 42.3392 19.7984 42.3392 19.7627C42.3392 19.7303 42.3328 19.7124 42.323 19.7189C42.3133 19.7254 42.3068 19.7076 42.3068 19.6784C42.3068 19.6492 42.3003 19.6313 42.2906 19.6378C42.2808 19.6443 42.2744 19.6297 42.2744 19.607C42.2744 19.5843 42.2679 19.5648 42.2581 19.5648C42.25 19.5648 42.2371 19.5356 42.2322 19.5C42.2257 19.4643 42.216 19.4399 42.2079 19.4448C42.1998 19.4497 42.1933 19.4351 42.1933 19.4124C42.1933 19.3897 42.1868 19.3702 42.177 19.3702C42.1689 19.3702 42.1608 19.3556 42.1608 19.3378C42.1608 19.3199 42.1543 19.3053 42.1446 19.3053C42.1365 19.3053 42.1284 19.2907 42.1284 19.2713C42.1284 19.2534 42.117 19.2275 42.1041 19.2145C42.0911 19.1999 42.0797 19.1723 42.0797 19.1496C42.0797 19.1285 42.0732 19.1107 42.0635 19.1107C42.0554 19.1107 42.0473 19.0961 42.0473 19.0766C42.0473 19.0588 42.0408 19.0491 42.0311 19.0539C42.0213 19.0604 42.0148 19.0426 42.0148 19.0101C42.0148 18.9696 42.01 18.9631 41.9986 18.9809C41.9857 19.0004 41.9824 18.9972 41.9824 18.9647C41.9824 18.942 41.9711 18.9096 41.9581 18.8933C41.9451 18.8755 41.9338 18.8431 41.9338 18.8204C41.9338 18.7863 41.9305 18.7831 41.9175 18.8025C41.9062 18.8204 41.9013 18.8123 41.9013 18.7701C41.9013 18.7279 41.8964 18.7198 41.8851 18.7376C41.8721 18.7571 41.8689 18.7522 41.8689 18.7166C41.8689 18.6922 41.8624 18.6728 41.8527 18.6728C41.8445 18.6728 41.8364 18.6582 41.8364 18.6403C41.8364 18.6225 41.8283 18.6079 41.8186 18.6079C41.8105 18.6079 41.8072 18.5998 41.8121 18.5917C41.817 18.5819 41.8137 18.5754 41.8056 18.5754C41.7959 18.5754 41.7878 18.556 41.7878 18.5333C41.7878 18.5106 41.7813 18.496 41.7716 18.5025C41.7618 18.5089 41.7553 18.4943 41.7553 18.47C41.7553 18.4457 41.7488 18.4311 41.7391 18.4376C41.731 18.4424 41.7229 18.4327 41.7229 18.4149C41.7229 18.3954 41.7164 18.3808 41.7083 18.3808C41.7002 18.3808 41.6888 18.3549 41.684 18.324C41.6775 18.2916 41.6661 18.2705 41.6564 18.2754C41.6483 18.2819 41.6418 18.2657 41.6418 18.2397C41.6418 18.204 41.6386 18.1992 41.6256 18.2186C41.6126 18.2381 41.6094 18.2365 41.6094 18.2056C41.6094 18.1862 41.6029 18.17 41.5931 18.17C41.585 18.17 41.5769 18.1586 41.5769 18.1456C41.5769 18.1326 41.5704 18.1213 41.5607 18.1213C41.5526 18.1213 41.5412 18.0953 41.5347 18.0645C41.5299 18.0337 41.5185 18.0078 41.5104 18.0078C41.5023 18.0078 41.4958 17.9932 41.4958 17.9737C41.4958 17.9559 41.4893 17.9461 41.4796 17.951C41.4699 17.9575 41.4634 17.9413 41.4634 17.9153C41.4634 17.8796 41.4601 17.8748 41.4472 17.8942C41.4342 17.9137 41.4309 17.9088 41.4309 17.8731C41.4309 17.8488 41.4245 17.8293 41.4147 17.8293C41.4066 17.8293 41.3953 17.8115 41.3888 17.7888C41.3839 17.7661 41.3726 17.7482 41.3644 17.7482C41.3563 17.7482 41.3498 17.7336 41.3498 17.7142C41.3498 17.6963 41.3434 17.6866 41.3336 17.6915C41.3239 17.6963 41.3174 17.685 41.3174 17.6639C41.3174 17.6331 41.3028 17.6428 41.2282 17.7255C41.1779 17.7823 41.1066 17.8423 41.0628 17.8634C40.9914 17.8975 40.9638 17.9023 40.7578 17.9007C40.5162 17.9007 40.4643 17.8926 39.989 17.771C39.5738 17.6639 39.3824 17.6331 39.144 17.6331C38.951 17.6331 38.9104 17.638 38.805 17.6736C38.6185 17.7369 38.5017 17.8488 38.4287 18.0353C38.3963 18.1197 38.3914 18.1586 38.3914 18.3889C38.3898 18.5803 38.3979 18.6874 38.4206 18.7944C38.4579 18.9809 38.5487 19.3021 38.5812 19.3637C38.6233 19.4464 38.7401 19.547 38.8358 19.5827C38.9493 19.6265 39.1991 19.6297 39.3548 19.5908C39.5916 19.5308 39.882 19.388 40.0134 19.2696C40.1123 19.1788 40.1804 19.1545 40.3037 19.1691C40.6589 19.2129 41.0579 19.4335 41.4082 19.7838C41.6012 19.9768 41.7002 20.1001 41.8235 20.3012C41.9435 20.5007 41.9694 20.5834 41.9629 20.757C41.9581 20.8851 41.9516 20.9159 41.9046 21.0068C41.778 21.2501 41.5883 21.4301 41.0271 21.8356C40.0961 22.5087 39.7182 22.8704 39.4181 23.3732C39.2689 23.6246 39.1926 23.7284 39.0759 23.8403C38.9575 23.9539 38.8828 24.0025 38.7466 24.0593C38.6623 24.0934 38.6233 24.0982 38.4546 24.0982C38.2016 24.0982 38.0897 24.0642 37.7491 23.8874C37.6258 23.8225 37.3112 23.6035 37.1425 23.4657C37.063 23.4008 36.6251 23.031 36.5488 22.9661C36.5261 22.9466 36.4726 22.9012 36.4272 22.8655C36.0963 22.6044 35.7379 22.2281 35.4443 21.8356C35.1523 21.4431 35.1085 21.3798 34.7323 20.8137C34.4808 20.4375 34.33 20.2169 34.1402 19.9541C34.1224 19.9298 34.0672 19.8487 34.0153 19.7725C33.8077 19.4594 33.6828 19.3394 33.5677 19.3378C33.459 19.3378 33.3001 19.4594 33.2709 19.5697C33.2384 19.693 33.3049 19.9865 33.4509 20.3499C33.5969 20.7164 33.6942 20.9257 34.0478 21.6247C34.2116 21.9507 34.3527 22.2232 34.3592 22.233C34.3657 22.2411 34.4208 22.3433 34.4808 22.46C34.5409 22.5752 34.6187 22.7212 34.6512 22.7844C34.8361 23.1299 35.0534 23.5565 35.1134 23.6927C35.2707 24.0496 35.3421 24.129 35.66 24.3074C35.9244 24.455 36.4418 24.5913 36.9624 24.6497C37.3371 24.6919 37.5253 24.7438 37.7604 24.8719C38.1221 25.0698 38.3006 25.3406 38.3038 25.6958C38.3038 25.8402 38.2762 25.9375 38.1903 26.0997C38.1351 26.2051 37.9583 26.4679 37.8999 26.5312C37.8837 26.549 37.8351 26.6074 37.7913 26.6609C37.7475 26.7144 37.5577 26.9139 37.3696 27.1037C37.0857 27.3908 36.9187 27.5514 36.458 27.9747C36.4483 27.9828 36.3802 28.0461 36.3056 28.1126C36.2309 28.1791 36.1628 28.2423 36.1531 28.2504C36.1434 28.2602 36.0055 28.3851 35.8482 28.531C35.4297 28.9154 35.3259 29.0387 35.274 29.2155C35.2432 29.3209 35.2383 29.827 35.2675 30.0476C35.2772 30.1205 35.2918 30.239 35.2999 30.3103C35.3162 30.4466 35.3729 30.8456 35.3973 30.9997C35.5011 31.6468 35.5432 31.9696 35.5432 32.1318C35.5432 32.328 35.5189 32.3929 35.3681 32.5924C35.2432 32.7562 35.141 32.86 34.8133 33.1617C34.4517 33.4926 34.0559 33.8884 33.9894 33.9873C33.8872 34.1365 33.858 34.2144 33.8402 34.3831C33.8175 34.5842 33.7591 34.8145 33.6942 34.9653C33.6861 34.9832 33.6569 35.0529 33.6293 35.1194C33.5774 35.2395 33.4039 35.593 33.3422 35.7033C33.0324 36.2483 32.4047 37.1728 32.0155 37.6578C31.6181 38.1509 31.3602 38.3471 30.9515 38.4655C30.6044 38.5661 30.4616 38.5807 29.8339 38.5823H29.2906L29.1949 38.5336C28.997 38.4331 28.8705 38.2125 28.7797 37.8103C28.731 37.5913 28.7197 37.5394 28.7002 37.4388C28.6823 37.3561 28.6304 37.1128 28.6012 36.9847C28.5931 36.9539 28.5721 36.8663 28.5526 36.79C28.5169 36.6489 28.4504 36.3748 28.3904 36.1169C28.2493 35.5184 28.139 35.1405 28.0011 34.7967C27.8665 34.456 27.7335 34.2306 27.5389 34.0084C27.3021 33.7391 27.2388 33.6045 27.1545 33.1974C27.1285 33.0676 27.1285 32.388 27.1545 32.1756C27.1755 32.015 27.1804 31.9761 27.2307 31.6565C27.2583 31.4814 27.2566 31.4911 27.354 30.9997C27.4415 30.5552 27.4643 30.3914 27.4659 30.187C27.4659 29.9405 27.4156 29.6096 27.3345 29.3128C27.2745 29.102 27.1139 28.6332 27.0507 28.4889C27.0361 28.4564 27.0182 28.4142 27.0117 28.3964C26.9988 28.364 26.7684 27.8109 26.7246 27.7071C26.6273 27.4784 26.4992 27.2481 26.4067 27.1394C26.2267 26.9253 25.9575 26.755 25.6882 26.6869C25.2908 26.5847 24.8643 26.5993 24.1733 26.7355C24.1328 26.7436 24.0273 26.7566 23.9381 26.7663C23.7921 26.7793 23.6527 26.7955 23.1677 26.8491C22.1718 26.9594 21.2797 27.0015 20.7964 26.9626C20.3147 26.9237 20.2319 26.8912 19.8102 26.5831C19.3155 26.2197 19.116 25.8824 18.9928 25.2011C18.9409 24.9157 18.9263 24.6773 18.9263 24.1307C18.9263 23.5289 18.949 23.1996 19.0171 22.8006C19.0803 22.4325 19.2101 21.9507 19.3285 21.6328C19.3431 21.5972 19.3723 21.5128 19.3966 21.4463C19.421 21.3798 19.4453 21.3101 19.4534 21.2922C19.468 21.2582 19.6772 20.7051 19.7291 20.5623C19.7827 20.4196 19.8702 20.1617 19.9303 19.9768C20.1654 19.2453 20.5077 18.8366 21.27 18.3776C21.3365 18.337 21.5668 18.2073 21.7809 18.0889C21.995 17.9705 22.201 17.8521 22.2383 17.8261C22.2756 17.8018 22.3097 17.7807 22.3162 17.7807C22.334 17.7807 22.5027 17.6688 22.819 17.4482C23.1726 17.2016 23.3429 17.1076 23.5764 17.0297C24.0079 16.8854 24.3793 16.8691 24.9924 16.9681C25.1059 16.9859 25.5795 17.0768 25.6736 17.0995C25.7401 17.1141 25.8536 17.1351 26.0321 17.1643C26.0856 17.1741 26.29 17.1919 26.4862 17.2049C26.6825 17.2179 26.8852 17.239 26.9355 17.2519C27.0912 17.2925 27.2518 17.3882 27.3783 17.5131C27.5243 17.6558 27.5875 17.7547 27.7886 18.1505C28.0628 18.6857 28.1357 18.7506 28.5526 18.8268C28.9386 18.8982 29.0635 18.8885 29.4138 18.7668L29.6636 18.6809L29.8826 18.6825C30.014 18.6841 30.1973 18.6987 30.3449 18.7198C30.9742 18.8139 31.1996 18.835 31.5483 18.835C32.348 18.835 32.9595 18.6176 33.4931 18.1424C33.7931 17.8748 34.1078 17.4758 34.2262 17.213C34.3154 17.0151 34.3349 16.9292 34.3333 16.7183C34.3316 16.548 34.3268 16.5091 34.2878 16.4036C34.1759 16.1068 34.0332 15.9154 33.4882 15.3477C33.0697 14.9114 32.9919 14.8287 32.8913 14.7071C32.7389 14.5238 32.7129 14.4962 32.575 14.3567C32.4031 14.1832 32.3285 14.141 32.1858 14.1394C32.0463 14.1394 32.0041 14.1621 31.7608 14.3697C31.4153 14.6649 31.2726 14.746 30.9596 14.8271C30.8606 14.853 30.4633 14.8498 30.3205 14.8206C30.0124 14.759 29.7966 14.6876 29.4284 14.5254C28.9548 14.3146 28.8332 14.2659 28.5202 14.1637C28.1082 14.0291 27.9736 14.0015 27.7189 14.0015C27.3004 14.0015 27.1334 14.1167 26.6987 14.699C26.1991 15.3705 25.9445 15.6121 25.5163 15.8278C24.981 16.0971 24.3452 16.2479 23.5797 16.2885C23.1255 16.3128 22.5692 16.2804 22.2918 16.2155C22.2691 16.209 22.2188 16.1977 22.1783 16.1879C22.0485 16.1571 21.8636 16.0922 21.7696 16.0419C21.3965 15.8441 21.3527 15.4256 21.643 14.8287C21.742 14.6244 21.8847 14.4249 22.0729 14.2318C22.3664 13.9269 22.6438 13.7744 22.9017 13.7744C22.9812 13.7744 23.1612 13.7436 23.2601 13.7128C23.3883 13.6723 23.5213 13.5847 23.6559 13.4501C23.7743 13.3333 23.8067 13.2879 23.87 13.1581C23.9884 12.9132 24.0127 12.8045 24.0225 12.4931C24.0289 12.2628 24.0241 12.1995 23.9933 12.0389C23.9122 11.6172 23.9446 11.2296 24.11 10.6522C24.1182 10.6246 24.1441 10.537 24.1668 10.4575C24.2544 10.1526 24.415 9.69035 24.5869 9.24107C24.6356 9.11618 24.6794 9.00102 24.6858 8.9848C24.6956 8.96047 24.6826 8.95723 24.5464 8.95723C24.4653 8.95723 24.402 8.96372 24.4069 8.97183Z" fill="#065798"/>
<path d="M48.6496 38.8256V48.8574H38.6178H28.5859V50.6091V52.3608H40.3695H52.153V40.5773V28.7938H50.4013H48.6496V38.8256Z" fill="#666B72"/>
</svg>
